<?xml version="1.0" encoding="UTF-8"?>
<!DOCTYPE svg PUBLIC "-//W3C//DTD SVG 1.1//EN" "http://www.w3.org/Graphics/SVG/1.1/DTD/svg11.dtd">
<!-- Creator: CorelDRAW -->
<svg xmlns="http://www.w3.org/2000/svg" xml:space="preserve" width="2048px" height="2048px" style="shape-rendering:geometricPrecision; text-rendering:geometricPrecision; image-rendering:optimizeQuality; fill-rule:evenodd; clip-rule:evenodd"
viewBox="0 0 2048 2048"
 xmlns:xlink="http://www.w3.org/1999/xlink">
 <defs>
  <style type="text/css">
   <![CDATA[
    .fil1 {fill:none}
    .fil2 {fill:#5D4037}
    .fil0 {fill:#FFD54F}
    .fil3 {fill:white}
   ]]>
  </style>
 </defs>
 <g id="Layer_x0020_1">
  <metadata id="CorelCorpID_0Corel-Layer"/>
  <path class="fil0" d="M1024 255.999c424.155,0 768.001,343.845 768.001,768.001 0,424.155 -343.845,768.001 -768.001,768.001 -424.155,0 -768.001,-343.845 -768.001,-768.001 0,-424.155 343.845,-768.001 768.001,-768.001z"/>
  <rect class="fil1" width="2048" height="2048"/>
  <rect class="fil1" x="255.999" y="255.999" width="1536" height="1536"/>
  <rect class="fil1" width="2048" height="2048"/>
  <rect class="fil1" x="255.999" y="255.999" width="1536" height="1536"/>
  <rect class="fil1" width="2048" height="2048"/>
  <rect class="fil1" x="255.999" y="255.999" width="1536" height="1536"/>
  <rect class="fil1" width="2048" height="2048"/>
  <rect class="fil1" x="255.999" y="255.999" width="1536" height="1536"/>
  <g id="_395429160">
   <path id="_395559472" class="fil2" d="M1024 1216c97.2024,0 176,78.7973 176,175.999 0,97.2024 -78.7973,176 -176,176 -97.2013,0 -175.999,-78.7973 -175.999,-176 0,-97.2013 78.7973,-175.999 175.999,-175.999z"/>
   <g>
    <path id="_395559304" class="fil2" d="M748.731 584.364c51.4855,0 98.0989,20.8713 131.843,54.6154 33.7418,33.7418 54.6154,80.3575 54.6154,131.843 0,51.4843 -20.8736,98.0989 -54.6154,131.843 -33.7441,33.7406 -80.3575,54.6142 -131.843,54.6142 -51.4843,0 -98.1013,-20.8736 -131.843,-54.6142 -33.7429,-33.7441 -54.6142,-80.3587 -54.6142,-131.843 0,-51.4855 20.8713,-98.1013 54.6142,-131.843 33.7418,-33.7441 80.3587,-54.6154 131.843,-54.6154z"/>
    <path id="_395559136" class="fil2" d="M1299.27 584.364c51.4843,0 98.1013,20.8713 131.843,54.6154 33.7429,33.7418 54.6142,80.3575 54.6142,131.843 0,51.4843 -20.8713,98.0989 -54.6142,131.843 -33.7418,33.7406 -80.3587,54.6142 -131.843,54.6142 -51.4855,0 -98.0989,-20.8736 -131.843,-54.6142 -33.7418,-33.7441 -54.6154,-80.3587 -54.6154,-131.843 0,-51.4855 20.8736,-98.1013 54.6154,-131.843 33.7441,-33.7441 80.3575,-54.6154 131.843,-54.6154z"/>
    <path id="_395558968" class="fil3" d="M1387.17 682.923c-22.4906,-22.4917 -53.5689,-36.4051 -87.8977,-36.4051 -34.3288,0 -65.406,13.9122 -87.8989,36.4051 -22.4917,22.4917 -36.4051,53.5701 -36.4051,87.8989 0,34.3288 13.9134,65.4071 36.4051,87.8977 22.4917,22.4917 53.5701,36.4051 87.8989,36.4051 34.3288,0 65.4071,-13.9134 87.8977,-36.4051 22.4929,-22.4917 36.4051,-53.5689 36.4051,-87.8977 0,-34.3288 -13.9134,-65.4071 -36.4051,-87.8989z"/>
    <path id="_395429592" class="fil3" d="M836.63 682.923c-22.4929,-22.4929 -53.5701,-36.4051 -87.8989,-36.4051 -34.3288,0 -65.4071,13.9134 -87.8977,36.4051 -22.4917,22.4917 -36.4051,53.5701 -36.4051,87.8989 0,34.3288 13.9122,65.406 36.4051,87.8977 22.4906,22.4917 53.5689,36.4051 87.8977,36.4051 34.3288,0 65.4071,-13.9134 87.8989,-36.4051 22.4917,-22.4906 36.4051,-53.5689 36.4051,-87.8977 0,-34.3288 -13.9134,-65.4071 -36.4051,-87.8989z"/>
    <path id="_395429424" class="fil2" d="M748.717 708.67c33.7949,0 61.1918,27.3957 61.1918,61.1918 0,33.7937 -27.3969,61.1906 -61.1918,61.1906 -33.7961,0 -61.1906,-27.3969 -61.1906,-61.1906 0,-33.7961 27.3945,-61.1918 61.1906,-61.1918z"/>
    <path id="_395429304" class="fil2" d="M1299.25 708.67c33.7961,0 61.1918,27.3957 61.1918,61.1918 0,33.7937 -27.3957,61.1906 -61.1918,61.1906 -33.7949,0 -61.1906,-27.3969 -61.1906,-61.1906 0,-33.7961 27.3957,-61.1918 61.1906,-61.1918z"/>
   </g>
  </g>
 </g>
</svg>
